<svg width="60" height="60" fill="none" xmlns="http://www.w3.org/2000/svg"><g clip-path="url(#a)"><mask id="b" style="mask-type:luminance" maskUnits="userSpaceOnUse" x="0" y="0" width="60" height="60"><path d="M60 0H0v60h60V0z" fill="#fff"/></mask><g mask="url(#b)"><path d="M60.079 20.157c.217 1.511.356 3.369 0 6.427-.297 2.549-1.754 7.989-2.05 9.067-.3 1.079-2.514 9.07-2.782 10.041-.27.971-3.582 12.444-3.998 13.734-.149.467-.565.574-.943.574H37.297c-2.857-1.835-3.686-4.529-3.942-6.102-.227-1.388-.208-2.539-.104-3.807.158-1.907.568-3.05.962-4.232.675-2.028 1.892-4.355 2.841-5.875 1.038-1.665 3.315-5.09 3.885-5.992.943-1.488 1.656-3.08 2.025-3.992a11.43 11.43 0 00.817-4.737c-.079-1.902-.596-3.059-1.817-4.352-1.245-1.315-2.951-2.024-4.613-2.03-1.621-.007-2.958.671-4.497 1.355-.978.432-2.697 1.337-5.847.934-5.096-.653-12.088-9.057-13.09-16.825 1.58-1.04 3.175-1.744 4.575-2.258 2.252-.832 4.059-1.375 8.736-1.86 4.156-.432 8.912-.18 11.419.198 3.239.486 7.786 1.99 9.798 3.075 2.403 1.296 4.75 3.103 6.452 5.02 2.104 2.379 3.028 4.334 3.715 6.075.703 1.784 1.252 4.049 1.467 5.562z" fill="#1D1E1C"/><path d="M43.78 25.263A11.428 11.428 0 0142.965 30c-.369.911-1.082 2.504-2.024 3.992-.571.902-2.848 4.327-3.886 5.992-.949 1.52-2.166 3.847-2.841 5.875-.394 1.183-.804 2.325-.962 4.232-.104 1.268-.123 2.42.104 3.807.256 1.573 1.085 4.267 3.942 6.102H11.841c-2.806 0-4.238-.284-5.777-2-1.608-1.79-1.83-4.042-1.744-5.376.098-1.58.501-2.29.719-3.208.214-.917.35-1.76.214-2.734-.176-1.308-.485-1.98-.719-2.469-.217-.457-.728-1.514-.766-2.611-.031-1.01.085-1.697.527-2.548.422-.814.719-1.356.65-2-.102-.917-.735-1.482-1.158-1.854-.501-.445-1.757-1.56-2.122-1.924-.587-.58-.764-1.135-.801-1.756-.041-.656.11-1.233.53-2.025.44-.83 3.213-4.506 3.617-5.127.406-.622 1.315-2.079 1.665-2.971.35-.89.662-1.63.794-3.05.142-1.573.029-2.513.08-3.361.16-2.779.646-3.791 1.071-4.747.606-1.368 1.763-3.052 3.463-4.515.6-.518 1.214-.975 1.832-1.379 1.003 7.768 7.995 16.172 13.09 16.825 3.151.403 4.87-.502 5.848-.934 1.539-.684 2.876-1.362 4.497-1.356 1.662.007 3.368.716 4.613 2.031 1.22 1.293 1.738 2.45 1.817 4.352zm-28.776-5.809a2.155 2.155 0 000 4.308 2.155 2.155 0 000-4.308z" fill="#1D1E1C"/><path d="M15.004 19.454a2.155 2.155 0 010 4.308 2.155 2.155 0 010-4.308z" fill="#1D1E1C"/><path d="M17.158 21.608a2.155 2.155 0 11-4.31-.001 2.155 2.155 0 014.31.001z" stroke="#FEF8F2" stroke-width=".848" stroke-linecap="round" stroke-linejoin="round"/><path d="M10.403 22.192a5.232 5.232 0 014.601-2.738 5.232 5.232 0 014.601 2.738" stroke="#FEF8F2" stroke-width=".848" stroke-linecap="round" stroke-linejoin="round"/><path d="M37.297 60h13.009c.378 0 .794-.107.943-.574.416-1.29 3.727-12.763 3.998-13.734.268-.971 2.482-8.962 2.782-10.04.296-1.08 1.753-6.52 2.05-9.068.356-3.058.217-4.916 0-6.427-.215-1.513-.764-3.777-1.467-5.562-.687-1.741-1.611-3.696-3.715-6.074-1.703-1.918-4.049-3.725-6.452-5.02-2.012-1.086-6.56-2.59-9.798-3.076-2.507-.378-7.263-.63-11.42-.198-4.676.485-6.483 1.028-8.735 1.86-1.4.514-2.996 1.218-4.576 2.258-.618.404-1.233.861-1.832 1.379-1.7 1.463-2.857 3.147-3.463 4.515-.425.956-.91 1.968-1.072 4.747-.05.848.063 1.788-.079 3.361-.132 1.42-.444 2.16-.794 3.05-.35.892-1.259 2.35-1.665 2.97-.404.622-3.176 4.299-3.618 5.128-.419.792-.57 1.369-.53 2.025.038.621.215 1.176.802 1.756.365.363 1.62 1.48 2.122 1.924.423.372 1.056.937 1.157 1.854.07.644-.227 1.186-.65 2-.44.851-.557 1.539-.526 2.548.038 1.097.549 2.154.766 2.611.234.489.543 1.16.72 2.47.135.974 0 1.816-.215 2.733-.218.918-.621 1.628-.719 3.208-.085 1.334.136 3.585 1.744 5.377C7.603 59.716 9.034 60 11.84 60h25.456z" stroke="#FEF8F2" stroke-width=".848" stroke-linecap="round" stroke-linejoin="round"/><path d="M37.297 60c-2.857-1.835-3.686-4.529-3.942-6.102-.227-1.388-.208-2.539-.104-3.807.158-1.907.568-3.05.962-4.232.675-2.028 1.892-4.355 2.841-5.875 1.038-1.665 3.315-5.09 3.885-5.992.943-1.488 1.656-3.08 2.025-3.992a11.43 11.43 0 00.817-4.737c-.079-1.902-.596-3.059-1.817-4.352-1.245-1.315-2.951-2.024-4.613-2.03-1.621-.007-2.958.671-4.497 1.355-.978.432-2.697 1.337-5.847.934-5.096-.653-12.088-9.057-13.09-16.825" stroke="#FEF8F2" stroke-width=".848" stroke-linecap="round" stroke-linejoin="round"/></g></g><defs><clipPath id="a"><path fill="#fff" d="M0 0H60V60H0z"/></clipPath></defs></svg>