<svg xmlns="http://www.w3.org/2000/svg" width="380" height="218" fill="none" xmlns:v="https://vecta.io/nano"><style><![CDATA[.B{stroke-linejoin:round}.C{stroke-linecap:round}.D{fill:#1d1e1c}.E{stroke:#fff}.F{stroke-miterlimit:10}]]></style><g clip-path="url(#A)"><g class="D"><path d="M338.594 4.933v5.878c0 2.294-1.38 3.517-3.511 3.517h-10.066-.787-59.83V0h74.194v4.933z"/><path d="M324.23 18.789v6.35c0 2.294-1.387 3.517-3.517 3.517h-8.674-2.174-59.829V14.328h.006H264.4h59.83v4.461z"/><path d="M309.866 33.117v6.35c0 2.294-1.387 3.517-3.517 3.517h-12.3-58.377V28.656h14.364 59.83v4.461zM264.4 0v14.328h-14.358V3.517c0-2.294 1.38-3.517 3.517-3.517H264.4z"/><path d="M250.036 14.328v14.328h-14.364V17.839c0-2.288 1.386-3.511 3.517-3.511h10.847z"/><path d="M235.672 28.656v14.328h-14.364V32.167c0-2.294 1.386-3.511 3.517-3.511h10.847z"/></g><g class="E F B"><g class="C"><path d="M264.4 0v14.328m-11.452-2.942l8.529-8.341"/><path d="M261.477 11.386l-8.529-8.341m15.344 7.482c.866 0 1.768-.539 2.373-1.81l1.586-3.499c.496-.981 1.368-1.489 2.203-1.489s1.707.508 2.21 1.489l1.58 3.499c.605 1.271 1.513 1.81 2.379 1.81s1.767-.539 2.372-1.81l1.586-3.499c.497-.981 1.368-1.489 2.204-1.489s1.707.508 2.209 1.489l1.58 3.499c.605 1.271 1.513 1.81 2.379 1.81s1.767-.539 2.373-1.81l1.586-3.499c.496-.981 1.368-1.489 2.203-1.489s1.707.508 2.203 1.489c.424.823 1.211 2.712 1.586 3.499.606 1.271 1.514 1.81 2.379 1.81m-55.247 3.801v14.328m-11.459-2.942l8.535-8.347"/><path d="M247.112 25.714l-4.267-4.171-4.268-4.177m15.351 7.488c.86 0 1.768-.539 2.373-1.81l1.586-3.505c.496-.981 1.368-1.483 2.203-1.483s1.707.502 2.204 1.483l1.586 3.505c.605 1.271 1.513 1.81 2.378 1.81s1.768-.539 2.373-1.81l1.586-3.505c.497-.981 1.368-1.483 2.204-1.483s1.707.502 2.203 1.483l1.586 3.505c.605 1.271 1.513 1.81 2.373 1.81s1.773-.539 2.379-1.81l1.586-3.505c.496-.981 1.368-1.483 2.203-1.483s1.707.502 2.203 1.483l1.586 3.505c.605 1.271 1.513 1.81 2.373 1.81m-55.241 3.802v14.328m-11.459-2.942l8.535-8.347"/><path d="M232.748 40.042l-4.267-4.171-4.268-4.177m15.351 7.488c.86 0 1.767-.545 2.373-1.81l1.586-3.505c.496-.981 1.368-1.483 2.203-1.483s1.707.502 2.203 1.483l1.586 3.505c.606 1.265 1.514 1.81 2.379 1.81s1.768-.545 2.373-1.81l1.586-3.505c.496-.981 1.368-1.483 2.203-1.483s1.707.502 2.204 1.483l1.586 3.505c.605 1.265 1.513 1.81 2.373 1.81s1.773-.545 2.378-1.81l1.586-3.505c.497-.981 1.368-1.483 2.204-1.483s1.707.502 2.203 1.483l1.586 3.505c.605 1.265 1.513 1.81 2.373 1.81"/></g><path d="M325.017 14.328h10.066c2.131 0 3.511-1.223 3.511-3.517V4.933 0H264.4h-10.841c-2.137 0-3.517 1.223-3.517 3.517v10.811H264.4h59.83.787z"/><g class="C"><path d="M235.672 28.656h-10.847c-2.131 0-3.517 1.217-3.517 3.511v10.817h14.364 58.377 12.3c2.13 0 3.517-1.223 3.517-3.517V28.656"/><path d="M250.036 14.328h-10.847c-2.131 0-3.517 1.223-3.517 3.511v10.817h14.364 59.83 2.173 8.674c2.131 0 3.517-1.223 3.517-3.517V14.328"/></g></g><g class="D"><path d="M54.433 130.894v3.418h-27.21-.012H.001v-3.418h27.21.012 27.21z"/><path d="M47.54 61.945v-.005c-1.412-.703-2.795-1.435-4.823-1.435-3.881 0-3.881 1.509-7.767 1.509-3.88 0-3.84-1.509-7.727-1.509h-.012c-3.88 0-3.84 1.509-7.727 1.509-3.88 0-3.88-1.509-7.761-1.509-2.029 0-3.412.731-4.829 1.435v.005c3.395 6.058 7.95 10.002 11.259 12.282 5.824 4.012 7.79 6.973 7.79 11.745v29.165c0 3.955-.783 5.693-3.967 7.762-2.949 1.914-4.229 4.132-4.229 5.777h9.464.012 9.465c0-1.645-1.274-3.863-4.229-5.777-3.183-2.069-3.966-3.807-3.966-7.762V85.972c0-4.772 1.966-7.733 7.79-11.745 3.309-2.28 7.87-6.224 11.259-12.282zm6.893-19.701v1c0 16.329-8.43 27.01-16.877 32.828-5.521 3.801-6.824 6.173-6.824 9.899 0 3.532 1.349 5.824 6.824 9.796 6.921 5.018 16.877 14.14 16.877 35.126h-27.21-.012H0c0-20.986 9.956-30.108 16.883-35.126 5.475-3.972 6.818-6.264 6.818-9.796 0-3.726-1.297-6.098-6.818-9.899C8.43 70.255 0 59.574 0 43.245v-1c.097 3.875 12.18 7.081 27.21 7.081h.012c15.031 0 27.119-3.206 27.21-7.081"/><path d="M54.432 38.987v3.258c-.091 3.875-12.179 7.081-27.21 7.081h-.011C12.179 49.326.097 46.12 0 42.245v-3.258c0 3.909 12.185 7.081 27.216 7.081s27.216-3.172 27.216-7.081zM47.54 61.94v.005c-3.389 6.059-7.95 10.002-11.259 12.282-5.824 4.012-7.79 6.973-7.79 11.745v29.165c0 3.955.783 5.693 3.966 7.761 2.955 1.915 4.229 4.132 4.229 5.779h-9.465-.012-9.464c0-1.647 1.28-3.864 4.229-5.779 3.183-2.068 3.967-3.806 3.967-7.761V85.972c0-4.772-1.966-7.732-7.79-11.745-3.309-2.28-7.864-6.224-11.259-12.282v-.005c1.417-.703 2.801-1.435 4.829-1.435 3.881 0 3.881 1.509 7.761 1.509 3.886 0 3.846-1.509 7.727-1.509h.012c3.886 0 3.846 1.509 7.727 1.509 3.886 0 3.886-1.509 7.767-1.509 2.029 0 3.412.732 4.824 1.435z"/><path d="M27.216 31.9c15.031 0 27.216 3.172 27.216 7.087 0 3.909-12.185 7.081-27.216 7.081S0 42.897 0 38.987C0 35.073 12.185 31.9 27.216 31.9z"/></g><g class="E F B"><g class="C"><path d="M54.433 38.987v3.258 1c0 16.328-8.43 27.01-16.877 32.828-5.521 3.801-6.824 6.173-6.824 9.899 0 3.532 1.348 5.824 6.824 9.796 6.921 5.018 16.877 14.14 16.877 35.126v3.418h-27.21-.012H.001v-3.418c0-20.986 9.956-30.108 16.883-35.126 5.475-3.972 6.818-6.264 6.818-9.796 0-3.726-1.297-6.098-6.818-9.899C8.431 70.255.001 59.574.001 43.245v-4.258"/><path d="M54.432 130.894H0"/></g><path d="M27.216 46.069c15.031 0 27.216-3.172 27.216-7.081 0-3.915-12.185-7.087-27.216-7.087S0 35.072 0 38.987c0 3.909 12.185 7.081 27.216 7.081z"/><g class="C"><path d="M54.432 42.245c-.091 3.875-12.179 7.081-27.21 7.081h-.011C12.179 49.327.097 46.12 0 42.245M47.54 61.94c-1.412-.703-2.795-1.435-4.824-1.435-3.881 0-3.881 1.509-7.767 1.509-3.88 0-3.84-1.509-7.727-1.509h-.012c-3.88 0-3.84 1.509-7.727 1.509-3.88 0-3.88-1.509-7.761-1.509-2.029 0-3.412.732-4.829 1.435m40.647.005c-3.389 6.058-7.95 10.002-11.259 12.282-5.824 4.012-7.79 6.972-7.79 11.745v29.165c0 3.955.783 5.693 3.966 7.761 2.955 1.915 4.229 4.132 4.229 5.778h-9.465-.012-9.464c0-1.646 1.28-3.863 4.229-5.778 3.183-2.068 3.967-3.806 3.967-7.761V85.972c0-4.772-1.966-7.733-7.79-11.745-3.309-2.281-7.864-6.224-11.259-12.282"/></g></g><g class="D"><path d="M340.334 109.73h-24.45l-2.648 11.667h24.449l2.649-11.667zm-18.83-8.048H380l-18.198 80.068h-13.63l-2.82 12.416h-57.253l18.456-81.192c1.405-6.159 5.726-11.292 14.949-11.292"/><path d="M348.172 181.75h13.63l-.258 1.124c-1.4 6.159-5.726 11.292-14.949 11.292h-1.243l2.82-12.416zm-32.288-72.019h24.449l-2.648 11.667h-24.449l2.648-11.667z"/></g><g class="B E F"><path d="M345.352 194.166h-57.253l18.456-81.191c1.405-6.16 5.726-11.293 14.949-11.293H380l-18.198 80.068-.258 1.124c-1.4 6.159-5.726 11.292-14.949 11.292h-1.243z"/><path d="M298.428 180.538c.865 0 1.911-.461 2.841-1.544l2.491-2.998c.748-.842 1.754-1.273 2.587-1.273s1.577.431 1.825 1.273c.207.703.51 2.325.682 2.998.278 1.083 1.046 1.544 1.91 1.544.87 0 1.911-.461 2.846-1.544l2.486-2.998c.753-.842 1.754-1.273 2.593-1.273.833 0 1.576.431 1.819 1.273.207.703.51 2.325.687 2.998.278 1.083 1.046 1.544 1.911 1.544s1.91-.461 2.845-1.544l2.486-2.998c.753-.842 1.754-1.273 2.588-1.273s1.576.431 1.824 1.273c.207.703.51 2.325.682 2.998.283 1.083 1.046 1.544 1.916 1.544.525 0 1.096-.133 1.713-.477" class="C"/><path d="M337.685 121.398l2.648-11.667h-24.449l-2.648 11.667h24.449z"/><g class="C"><path d="M345.352 194.166l2.82-12.416h13.63m-51.973-45.655h53.729m-55.539 7.962h53.729m-55.539 7.962h53.729m-55.539 7.962h53.73"/></g><path d="M365.368 128.132l-9.049 39.811h-53.73l9.049-39.81 53.73-.001z"/></g><g class="D"><path d="M295.066 212.482c0 .824.146 2.592-1.954 3.735-3.017 1.635-7.523 1.688-13.251 1.688H167.027h-.106H54.087c-5.742 0-10.235-.053-13.252-1.688-2.113-1.143-1.954-2.911-1.954-3.735v-6.407h.013c.04.891.412 2.14 1.994 3.004 3.017 1.635 7.51 1.688 13.252 1.688h61.209 51.625 112.833c5.729 0 10.235-.053 13.239-1.688 1.595-.864 1.967-2.113 2.007-3.004l.013 6.407z"/><path d="M263.764 191.322l-15.95-10.235h9.384l33.602 19.964c2.791 1.675 3.974 2.898 4.213 4.307.027.186.053.425.04.717-.04.891-.412 2.14-2.007 3.004-3.004 1.635-7.51 1.688-13.239 1.688H166.974h-51.625H54.14c-5.742 0-10.235-.053-13.252-1.688-1.582-.864-1.954-2.113-1.994-3.004-.013-.292.013-.531.04-.717.226-1.409 1.422-2.632 4.2-4.307l33.615-19.964h9.371l-15.95 10.235-7.124 4.612c-1.063.731-3.349 2.1-3.589 3.403-.266 1.408.505 2.193 1.569 2.525 1.05.332 3.589.306 5.17.306h28.165 22.011 15.179 35.423 35.409 37.203 28.166c1.568 0 4.107.026 5.17-.306s1.834-1.117 1.569-2.525c-.24-1.303-2.526-2.672-3.589-3.403-.372-.253-3.403-2.207-7.138-4.612z"/><path d="M274.491 199.337c.265 1.408-.505 2.193-1.569 2.525s-3.602.306-5.17.306h-28.166l-9.742-10.846h33.92l7.138 4.612c1.063.731 3.349 2.1 3.589 3.403z"/><path d="M263.764 191.322h-33.92l-9.198-10.235h27.168l15.95 10.235z"/><path d="M250.047 173.936V73.211c0-4.945-1.701-8.241-9.995-8.241h-73.078-73.092c-8.294 0-9.995 3.296-9.995 8.241v100.725h83.087 83.073zm7.151-100.725v107.876h-9.384-27.168-26.81-26.862-26.876-26.81H86.12h-9.371V73.211c0-8.387 4.373-15.392 17.133-15.392h41.324 31.768 73.078c12.773 0 17.146 7.005 17.146 15.392"/><path d="M250.047 73.211v100.725h-83.073-83.087V73.211c0-4.945 1.701-8.241 9.995-8.241h73.092 73.078c8.294 0 9.995 3.296 9.995 8.241zm-20.203 118.111l9.742 10.846h-37.203l-4.4-10.846h31.861z"/><path d="M229.844 191.322h-31.861l-4.147-10.235h26.81l9.198 10.235z"/><path d="M197.983 191.322l4.4 10.846h-35.409v-10.846h31.009z"/><path d="M193.836 181.087l4.147 10.235h-31.009v-10.235h26.862z"/><path d="M166.974 191.322v10.846h-35.423l4.4-10.846h31.023z"/><path d="M166.974 181.087v10.235h-31.023l4.147-10.235h26.876z"/><path d="M140.098 181.087l-4.147 10.235h-31.847l9.184-10.235h26.81z"/><path d="M135.951 191.322l-4.4 10.846h-15.179-22.011l9.743-10.846h31.847z"/><path d="M113.288 181.087l-9.184 10.235H70.17l15.95-10.235h27.168z"/><path d="M104.104 191.322l-9.743 10.846H66.196c-1.582 0-4.12.026-5.17-.306-1.063-.332-1.834-1.117-1.568-2.525.239-1.303 2.526-2.672 3.589-3.403l7.124-4.612h33.934z"/></g><g class="B E F"><path d="M94.361 202.168l18.927-21.081m26.81 0l-8.547 21.081"/><path d="M166.974 181.087h26.862 26.81 27.168 9.384V73.211c0-8.387-4.373-15.392-17.146-15.392h-73.078-31.768-41.324c-12.76 0-17.133 7.005-17.133 15.392v107.876h9.371 27.168 26.81 26.876z"/><path d="M166.974 173.936h83.073V73.211c0-4.945-1.701-8.241-9.995-8.241h-73.078-73.092c-8.294 0-9.995 3.296-9.995 8.241v100.725h83.087zm90.224 7.151l33.602 19.964c2.791 1.675 3.974 2.898 4.213 4.307.027.186.053.425.04.717-.04.891-.412 2.14-2.007 3.004-3.004 1.635-7.51 1.688-13.239 1.688H166.974h-51.625H54.14c-5.742 0-10.235-.053-13.252-1.688-1.582-.864-1.954-2.113-1.994-3.004-.013-.292.013-.531.04-.717.226-1.409 1.422-2.632 4.2-4.307l33.615-19.964"/><path d="M295.053 206.075l.013 6.407c0 .824.146 2.592-1.954 3.735-3.017 1.635-7.523 1.688-13.251 1.688H167.027h-.106H54.087c-5.742 0-10.235-.053-13.252-1.688-2.113-1.143-1.954-2.911-1.954-3.735v-6.407m208.933-24.988l15.95 10.235 7.138 4.612c1.063.731 3.349 2.1 3.588 3.403.266 1.408-.505 2.193-1.568 2.525s-3.602.306-5.17.306h-28.166-37.203-35.409-35.423-15.179-22.011-28.165c-1.582 0-4.12.026-5.17-.306-1.063-.332-1.834-1.117-1.569-2.525.239-1.303 2.526-2.672 3.589-3.403l7.124-4.612 15.95-10.235m153.466 21.081l-18.94-21.081m-26.81 0l8.547 21.081"/><path d="M263.777 191.322h-.013-33.92-31.861-31.009H70.17m96.804-10.235v21.081"/></g><g class="D"><path d="M194.471 121.161a31.31 31.31 0 0 1-7.246 20.081h-.005a5.74 5.74 0 0 0-.238-.221c-2.528-2.242-3.705-.912-6.234-3.158s-1.351-3.573-3.879-5.814c-2.528-2.247-3.706-.916-6.234-3.158s-1.629-3.609-3.875-5.815c-1.38-1.355-2.597-1.641-3.731-1.915V89.719c17.364 0 31.442 14.078 31.442 31.442z"/><path d="M186.983 141.021l.237.222c-5.762 6.943-14.46 11.363-24.19 11.363-17.368 0-31.441-14.077-31.441-31.445h31.441c1.133.274 2.35.56 3.73 1.915 2.246 2.206 1.347 3.573 3.875 5.815s3.706.911 6.234 3.158c2.529 2.241 1.351 3.572 3.88 5.814s3.705.916 6.234 3.158z"/><path d="M163.03 89.72v31.441h-31.442c0-17.364 14.074-31.441 31.442-31.441z"/></g><g class="E B"><g class="F"><path d="M187.221 141.243c-5.763 6.943-14.46 11.363-24.191 11.363-17.368 0-31.441-14.077-31.441-31.445S145.662 89.72 163.03 89.72s31.441 14.077 31.441 31.441c0 7.637-2.722 14.638-7.246 20.082"/><path d="M131.588 121.161h31.442V89.719"/></g><path d="M163.03 121.161c1.133.274 2.351.56 3.729 1.915 2.247 2.206 1.348 3.573 3.876 5.815s3.706.911 6.234 3.158c2.528 2.241 1.351 3.572 3.879 5.814s3.706.916 6.234 3.158l.238.221h.004" class="C"/></g></g><defs><clipPath id="A"><path fill="#fff" d="M0 0h380v218H0z"/></clipPath></defs></svg>