<svg width="70" height="60" fill="none" xmlns="http://www.w3.org/2000/svg"><g clip-path="url(#a)"><mask id="b" style="mask-type:luminance" maskUnits="userSpaceOnUse" x="0" y="0" width="70" height="60"><path d="M70 0H0v60h70V0z" fill="#fff"/></mask><g mask="url(#b)"><path d="M69.944 22.439v37.56h-9.956V22.42l9.956.02zM59.988 22.42V60h-9.956V14.824h9.956v7.595z" fill="#1D1E1C"/><path d="M56.346 14.824H50.03v14.46h-9.96V40.53h-9.955V60C13.47 59.93 0 46.524 0 30 0 13.43 13.544 0 30.25 0a30.271 30.271 0 0126.096 14.824zm-26.01 17.141a2.03 2.03 0 002.039-2.023 2.028 2.028 0 00-2.04-2.018 2.027 2.027 0 00-2.035 2.018c0 1.119.912 2.023 2.036 2.023z" fill="#1D1E1C"/><path d="M50.032 29.284V60h-9.96V29.284h9.96z" fill="#1D1E1C"/><path d="M40.072 40.53V60h-9.956V40.53h9.956zM30.336 27.924c1.127 0 2.039.904 2.039 2.018a2.03 2.03 0 01-2.04 2.023 2.028 2.028 0 01-2.035-2.023c0-1.114.912-2.018 2.036-2.018z" fill="#1D1E1C"/><path d="M56.346 14.824A30.271 30.271 0 0030.25 0C13.543 0 0 13.43 0 30c0 16.524 13.47 29.93 30.116 30h.134M30.336 7.002v.004" stroke="#FEF8F2" stroke-width=".87" stroke-miterlimit="10" stroke-linecap="round" stroke-linejoin="round"/><path d="M30.336 27.924a2.027 2.027 0 00-2.035 2.018c0 1.119.91 2.023 2.035 2.023a2.03 2.03 0 002.039-2.023 2.028 2.028 0 00-2.04-2.018zM41.77 10.2l1.986-3.408M30.336 7.002V3.064M7.063 29.912h-3.97M10.346 18.509l-3.441-1.97M18.904 10.17L16.92 6.757M10.35 41.315l-3.437 1.969M18.908 49.654l-1.985 3.413M30.336 31.965v3.524M30.336 10.2v17.724M28.3 30.486c-1.15 0-1.15-1.084-2.298-1.084-1.15 0-1.15 1.084-2.297 1.084-1.151 0-1.151-1.084-2.298-1.084-1.151 0-1.151 1.084-2.298 1.084-1.15 0-1.15-1.084-2.302-1.084-1.15 0-1.15 1.084-2.297 1.084-1.152 0-1.152-1.084-2.302-1.084M50.032 60V14.824h9.956v45.175" stroke="#FEF8F2" stroke-width=".87" stroke-miterlimit="10" stroke-linecap="round" stroke-linejoin="round"/><path d="M40.072 60V29.283h9.96M30.116 60V40.53h9.956" stroke="#FEF8F2" stroke-width=".87" stroke-miterlimit="10" stroke-linecap="round" stroke-linejoin="round"/><path d="M30.25 60h39.694V22.439l-9.956-.02" stroke="#FEF8F2" stroke-width=".87" stroke-miterlimit="10" stroke-linecap="round" stroke-linejoin="round"/></g></g><defs><clipPath id="a"><path fill="#fff" d="M0 0H70V60H0z"/></clipPath></defs></svg>