<svg width="70" height="60" fill="none" xmlns="http://www.w3.org/2000/svg"><g clip-path="url(#a)"><mask id="b" style="mask-type:luminance" maskUnits="userSpaceOnUse" x="0" y="0" width="70" height="60"><path d="M70 0H0v60h70V0z" fill="#fff"/></mask><g mask="url(#b)"><path d="M60.801 11.174c.053-.056.106-.112.155-.168-3.204-.056-5.787-2.648-5.787-5.841H34.256c0 3.227-2.764 5.916-6.183 5.84-.922 2.484-2.38 4.61-4.608 7.07-2.369 2.618-3.295 4.052-4.376 9.852l-.03.172c-.418 2.256-1.284 6.946-6.224 11.368-3.412 3.051-4.1 4.568-4.285 9.456 3.253 0 5.904 2.685 5.904 5.912H35.74v-.07c0-3.228 2.93-6.174 7.283-5.842h.01c0-.12.005-.217.005-.265.278-7.772 2.345-11.883 7.91-16.862 2.313-2.069 2.655-3.921 2.956-5.557l.034-.19c1.326-7.118 2.866-10.457 6.864-14.875zM68.163 0c.647 0 1.2.262 1.2 1.027 0 6.42-1.08 9.617-4.683 13.598-3.216 3.551-4.436 5.994-5.622 12.365-.354 1.897-.88 5.292-4.62 8.642-4.522 4.044-5.776 6.894-6.002 13.19-.215 6.013-2.169 8.635-3.807 10.2-.557.537-1.103.978-2.797.978H.944c-.813 0-1.34-.9-.565-2.002 1.27-1.796 2.787-4.264 2.964-9.176.226-6.296 1.483-9.146 6.002-13.19 3.742-3.35 4.27-6.745 4.623-8.642 1.187-6.371 2.403-8.814 5.618-12.365 3.604-3.981 4.684-7.38 4.684-13.557C24.27.403 24.575 0 25.43 0h42.733z" fill="#1D1E1C"/><path d="M43.413 28.39c.867-4.87-2.413-8.817-7.327-8.817-4.91 0-9.594 3.947-10.46 8.817-.866 4.874 2.414 8.821 7.323 8.821 4.914 0 9.598-3.947 10.464-8.82zm17.543-17.384a6.204 6.204 0 01-.155.168c-3.998 4.418-5.538 7.756-6.864 14.875l-.034.19c-.3 1.636-.643 3.488-2.955 5.557-5.566 4.978-7.632 9.09-7.911 16.862 0 .048-.004.145-.004.265h-.011c-4.353-.333-7.282 2.614-7.282 5.84v.072H14.454c0-3.227-2.65-5.912-5.904-5.912.185-4.888.874-6.405 4.285-9.456 4.94-4.422 5.806-9.112 6.224-11.368l.03-.172c1.08-5.8 2.007-7.234 4.376-9.852 2.229-2.46 3.686-4.586 4.608-7.07 3.42.075 6.183-2.614 6.183-5.84h20.913c0 3.193 2.583 5.785 5.787 5.84z" fill="#1D1E1C"/><path d="M36.086 19.573c4.914 0 8.194 3.947 7.327 8.817-.866 4.874-5.55 8.821-10.464 8.821-4.91 0-8.189-3.947-7.323-8.82.866-4.87 5.55-8.818 10.46-8.818z" fill="#1D1E1C"/><path d="M28.073 11.006c-.922 2.483-2.38 4.608-4.608 7.07-2.369 2.617-3.295 4.052-4.376 9.851l-.03.172c-.418 2.256-1.284 6.946-6.224 11.368-3.411 3.051-4.1 4.568-4.285 9.456M43.033 48.923c0-.12.004-.216.004-.265.279-7.772 2.346-11.883 7.91-16.861 2.313-2.07 2.655-3.922 2.957-5.558l.033-.19c1.326-7.118 2.866-10.457 6.865-14.875.052-.056.105-.112.154-.168M14.454 54.835H35.74" stroke="#FEF8F2" stroke-width=".86" stroke-miterlimit="10" stroke-linecap="round" stroke-linejoin="round"/><path d="M69.364 1.027C69.364.262 68.81 0 68.163 0H25.43c-.855 0-1.16.403-1.16 1.068 0 6.177-1.08 9.576-4.684 13.557-3.215 3.551-4.431 5.994-5.617 12.365-.354 1.897-.881 5.292-4.624 8.642-4.519 4.044-5.776 6.894-6.002 13.19-.177 4.911-1.695 7.38-2.964 9.176C-.396 59.1.131 60 .944 60h40.888c1.694 0 2.24-.44 2.798-.979 1.638-1.564 3.591-4.186 3.806-10.199.226-6.296 1.48-9.146 6.002-13.19 3.74-3.35 4.266-6.745 4.62-8.642 1.187-6.371 2.406-8.814 5.622-12.365 3.603-3.981 4.684-7.178 4.684-13.598zM34.256 5.165H55.17M8.55 48.923c3.253 0 5.904 2.685 5.904 5.912M35.74 54.764c0-3.227 2.929-6.173 7.282-5.84" stroke="#FEF8F2" stroke-width=".86" stroke-miterlimit="10" stroke-linecap="round" stroke-linejoin="round"/><path d="M43.413 28.39c-.866 4.874-5.55 8.822-10.464 8.822-4.91 0-8.189-3.948-7.323-8.822.866-4.87 5.55-8.817 10.46-8.817 4.914 0 8.194 3.948 7.327 8.817zM28.073 11.006c3.42.074 6.183-2.614 6.183-5.841M60.956 11.006c-3.204-.056-5.787-2.648-5.787-5.84" stroke="#FEF8F2" stroke-width=".86" stroke-miterlimit="10" stroke-linecap="round" stroke-linejoin="round"/></g></g><defs><clipPath id="a"><path fill="#fff" d="M0 0H70V60H0z"/></clipPath></defs></svg>